<svg xmlns="http://www.w3.org/2000/svg" viewBox="0 0 32 32">
  <rect width="32" height="32" rx="6" fill="#121212"/>
  <!-- Open book - left page -->
  <path d="M16 9 C16 9, 8 7, 6 9 L6 24 C8 22, 16 23, 16 23" fill="none" stroke="#ede6d4" stroke-width="1.5" stroke-linejoin="round"/>
  <!-- Open book - right page -->
  <path d="M16 9 C16 9, 24 7, 26 9 L26 24 C24 22, 16 23, 16 23" fill="none" stroke="#ede6d4" stroke-width="1.5" stroke-linejoin="round"/>
  <!-- Spine -->
  <line x1="16" y1="9" x2="16" y2="23" stroke="#CA3553" stroke-width="1.5"/>
  <!-- Page lines - left -->
  <line x1="9" y1="14" x2="14" y2="13.5" stroke="#ede6d4" stroke-width="0.75" opacity="0.4"/>
  <line x1="9" y1="17" x2="14" y2="16.5" stroke="#ede6d4" stroke-width="0.75" opacity="0.4"/>
  <line x1="9" y1="20" x2="14" y2="19.5" stroke="#ede6d4" stroke-width="0.75" opacity="0.4"/>
  <!-- Page lines - right -->
  <line x1="18" y1="13.5" x2="23" y2="14" stroke="#ede6d4" stroke-width="0.75" opacity="0.4"/>
  <line x1="18" y1="16.5" x2="23" y2="17" stroke="#ede6d4" stroke-width="0.75" opacity="0.4"/>
  <line x1="18" y1="19.5" x2="23" y2="20" stroke="#ede6d4" stroke-width="0.75" opacity="0.4"/>
</svg>